<svg width="240" height="86" viewBox="0 0 240 86" fill="none" xmlns="http://www.w3.org/2000/svg">
<path d="M138.297 0.0665011C140.69 0.0665011 143.027 0.399074 145.307 1.0591C147.593 1.71913 149.617 2.71172 151.39 4.03177C153.163 5.35182 154.583 7.01468 155.649 9.02034C156.715 11.026 157.248 13.3693 157.248 16.0555V51.6048C157.248 57.105 156.371 61.9606 154.624 66.1817C152.871 70.4028 150.386 73.9383 147.162 76.7932C143.939 79.6482 140.055 81.8023 135.509 83.2502C130.964 84.6982 125.89 85.4247 120.299 85.4247C114.365 85.4247 109.071 84.6982 104.418 83.2502C99.7649 81.8023 95.8241 79.6585 92.6007 76.8239C89.3773 73.9894 86.9226 70.4642 85.2366 66.2431C83.5506 62.022 82.7051 57.1408 82.7051 51.5997V6.84073C82.7051 6.31885 82.9459 5.81743 83.3661 5.50532C85.2879 4.09829 87.5888 2.855 90.2639 1.79077C93.2515 0.598628 96.562 0 100.19 0C102.881 0 105.325 0.353036 107.524 1.05399C109.722 1.75495 111.623 2.83453 113.222 4.28249C114.821 5.73046 116.061 7.56727 116.937 9.78271C117.814 11.9981 118.249 14.6229 118.249 17.6467V53.8305C118.249 54.7156 118.967 55.4319 119.848 55.4319C120.448 55.4319 120.894 55.2836 121.191 54.9868C121.488 54.6901 121.637 54.0709 121.637 53.1346V17.5853C121.637 16.1783 121.606 14.9452 121.539 13.8759C121.478 12.8117 121.37 11.8498 121.222 11.0004C121.073 10.146 120.868 9.35803 120.612 8.63661C120.494 8.2938 120.361 7.95611 120.222 7.61331C119.93 6.90212 120.156 6.08861 120.766 5.62813C122.851 4.05737 125.183 2.77824 127.75 1.79587C130.769 0.639549 134.279 0.0665011 138.297 0.0665011Z" fill="#60BEFF"/>
<path d="M77.8616 79.7455C77.8616 80.0719 77.7039 80.3875 77.4372 80.578C74.6732 82.5748 71.7731 83.9025 68.7424 84.5717C65.554 85.2736 62.4961 85.6218 59.5579 85.6218C56.7503 85.6218 54.193 85.3226 51.8751 84.7295C49.5572 84.1364 47.5604 83.2604 45.8791 82.1178C44.1978 80.9697 42.9028 79.5333 41.9887 77.8139C41.0746 76.0945 40.6176 74.0813 40.6176 71.7906V60.1903C40.6176 59.6244 41.0746 59.1619 41.6459 59.1619H45.1445C46.1239 59.1619 46.8748 59.0857 47.408 58.9388C47.9412 58.7919 48.333 58.5906 48.5887 58.3349C48.8445 58.0792 48.9914 57.7744 49.0349 57.4099C49.1056 56.8168 48.6377 56.2945 48.0392 56.2945H30.1326C29.5341 56.2945 29.0716 56.8168 29.1423 57.4099C29.1859 57.769 29.311 58.0792 29.5232 58.3349C29.7354 58.5906 30.0673 58.7919 30.5135 58.9388C30.9597 59.0857 31.5854 59.1619 32.3961 59.1619H36.2157C36.7816 59.1619 37.2441 59.619 37.2441 60.1903V79.7019C37.2441 80.0556 37.0591 80.3875 36.7598 80.578C35.1493 81.5846 33.5986 82.4062 32.1077 83.0482C30.47 83.7501 28.8866 84.2942 27.3577 84.6751C25.8287 85.056 24.3596 85.3117 22.9559 85.4423C21.5521 85.5729 20.2136 85.6327 18.9403 85.6327C16.1328 85.6327 13.5755 85.3335 11.2576 84.7404C8.93967 84.1473 6.9428 83.2713 5.26151 82.1287C3.58022 80.9806 2.28525 79.5442 1.37115 77.8248C0.457048 76.1054 0 74.0922 0 71.8015V8.77766C0 8.51105 0.103377 8.24443 0.293814 8.05399C2.492 5.82315 5.15813 4.11466 8.29218 2.93939C11.5677 1.70427 14.9248 1.08943 18.369 1.08943C20.7468 1.08943 23.0756 1.41044 25.3499 2.04705C27.6243 2.68365 29.6429 3.65217 31.4058 4.94714C33.1687 6.24212 34.5834 7.89075 35.6444 9.88763C36.7054 11.8845 37.2387 14.2242 37.2387 16.9012V27.2229C37.2387 27.7887 37.6957 28.2512 38.267 28.2512H44.2304C44.8725 28.2512 45.3622 27.6581 45.2425 27.027C45.1391 26.5101 44.9595 26.1401 44.7038 25.9224C44.2794 25.5633 43.6428 25.3783 42.7885 25.3783H41.6459C41.08 25.3783 40.6176 24.9213 40.6176 24.35V8.77221C40.6176 8.5056 40.7209 8.23898 40.9114 8.04854C43.1096 5.81771 45.7757 4.10921 48.9097 2.93394C52.1853 1.69882 55.5424 1.08398 58.9866 1.08398C61.3643 1.08398 63.6931 1.40501 65.9675 2.04162C68.2418 2.67822 70.2605 3.64672 72.0234 4.9417C73.7863 6.23667 75.201 7.88532 76.262 9.8822C77.323 11.8791 77.8562 14.2187 77.8562 16.8957L77.8616 79.7455Z" fill="#60BEFF"/>
<path d="M162.144 10.5393C162.144 9.55451 162.949 8.44998 164.554 7.23118C166.159 6.01238 168.482 4.86431 171.524 3.79242C174.566 2.72053 178.276 1.82276 182.667 1.09366C187.058 0.364557 192.015 0 197.538 0C204.344 0 210.15 0.674693 214.944 2.02408C219.737 3.37346 223.649 5.18534 226.669 7.45427C229.689 9.72319 231.893 12.3458 233.286 15.322C234.678 18.2983 235.375 21.416 235.375 24.6698C235.375 25.9104 235.266 27.1672 235.054 28.4296C234.842 29.6919 234.521 30.9053 234.091 32.0588C233.661 33.2177 233.117 34.295 232.453 35.3016C231.963 36.0471 231.419 36.6891 230.821 37.2387C230.451 37.576 229.912 37.6413 229.455 37.4345C228.503 37.0047 227.561 36.6837 226.637 36.4606C225.478 36.1831 224.471 36.0416 223.617 36.0416C222.719 36.0416 221.99 36.2157 221.435 36.5531C221.375 36.5912 221.315 36.6347 221.261 36.6837C220.45 37.3856 220.983 38.735 222.05 38.8329C224.781 39.0832 227.192 39.7361 229.27 40.7971C231.713 42.0377 233.721 43.6319 235.31 45.5853C236.893 47.5332 238.074 49.7586 238.841 52.2669C239.613 54.7698 240 57.3761 240 60.0694C240 64.6943 239.037 68.6119 237.111 71.8221C235.184 75.0323 232.388 77.6331 228.726 79.6246C225.064 81.616 220.57 83.0633 215.237 83.9611C209.905 84.8589 203.833 85.3105 197.026 85.3105C192.146 85.3105 187.923 85.2343 184.37 85.0874C180.817 84.9351 177.754 84.6902 175.186 84.3474C170.648 83.7489 167.34 82.3016 165.261 80.0109C163.183 77.7202 162.144 74.1998 162.144 69.4443V10.5393V10.5393ZM197.026 35.269C197.157 35.3561 197.358 35.4105 197.636 35.4322C197.913 35.454 198.098 35.4649 198.18 35.4649C199.208 35.4649 199.937 35.1439 200.362 34.5018C200.791 33.8598 201.004 32.8096 201.004 31.3569V30.9706C201.004 29.4743 200.819 28.3806 200.46 27.695C200.095 27.0095 199.42 26.6667 198.435 26.6667C198.223 26.6667 197.962 26.6884 197.663 26.732C197.364 26.7755 197.13 26.8408 196.956 26.9224C196.999 27.2652 197.021 27.6297 197.021 28.016C197.021 28.4024 197.021 28.8105 197.021 29.2349V35.269H197.026ZM197.026 59.4872C197.157 59.5742 197.358 59.6287 197.636 59.6504C197.913 59.6722 198.098 59.6831 198.18 59.6831C199.208 59.6831 199.937 59.4164 200.362 58.8778C200.791 58.3446 201.004 57.3488 201.004 55.8906V54.6718C201.004 53.1756 200.819 52.0601 200.46 51.331C200.095 50.6019 199.42 50.2374 198.435 50.2374C198.223 50.2374 197.962 50.2591 197.663 50.3027C197.364 50.3462 197.13 50.4115 196.956 50.4931C196.999 50.8359 197.021 51.2004 197.021 51.5868C197.021 51.9731 197.021 52.3811 197.021 52.8056V59.4872H197.026Z" fill="#60BEFF"/>
</svg>
